<svg xmlns="http://www.w3.org/2000/svg" version="1.1" xmlns:xlink="http://www.w3.org/1999/xlink" width="1000" height="1000"><g clip-path="url(#SvgjsClipPath1156)"><rect width="1000" height="1000" fill="#ffffff"></rect><g transform="matrix(5,0,0,5,0,0)"><svg xmlns="http://www.w3.org/2000/svg" version="1.1" xmlns:xlink="http://www.w3.org/1999/xlink" width="200" height="200"><svg xmlns="http://www.w3.org/2000/svg" version="1.1" xmlns:xlink="http://www.w3.org/1999/xlink" viewBox="0 0 200 200"><rect width="200" height="200" fill="url('#gradient')"></rect><defs><linearGradient id="gradient" gradientTransform="rotate(45 0.5 0.5)"><stop offset="0%" stop-color="#ffffff"></stop><stop offset="100%" stop-color="#ffffff"></stop></linearGradient><clipPath id="SvgjsClipPath1156"><rect width="1000" height="1000" x="0" y="0" rx="500" ry="500"></rect></clipPath></defs><g><g fill="#000000" transform="matrix(4.598268350261007,0,0,4.598268350261007,3.953500027878306,121.49475678628542)" stroke="#000000" stroke-width="0.2"><path d="M17.15-5.37L17.15-5.37Q17.05-2.82 15.88-1.31Q14.71 0.21 12.75 0.21L12.75 0.21Q11.95 0.21 11.34-0.14Q10.72-0.49 10.38-1.12L10.38-1.12Q9.42 0.17 7.81 0.17L7.81 0.17Q6.88 0.17 6.17-0.39Q5.47-0.94 5.14-1.95Q4.81-2.97 4.94-4.26L4.94-4.26Q5.23-6.70 6.51-8.18Q7.79-9.67 9.65-9.67L9.65-9.67Q11.08-9.67 12.12-9.00L12.12-9.00L12.73-8.59L12.24-2.86Q12.07-1.50 13.17-1.50L13.17-1.50Q14.00-1.50 14.57-2.56Q15.13-3.62 15.19-5.27L15.19-5.27Q15.35-8.54 13.83-10.31Q12.31-12.09 9.38-12.09L9.38-12.09Q7.52-12.09 6.07-11.14Q4.62-10.19 3.77-8.44Q2.93-6.70 2.82-4.47L2.82-4.47Q2.67-1.05 4.19 0.76Q5.71 2.57 8.76 2.57L8.76 2.57Q9.58 2.57 10.50 2.38Q11.42 2.19 11.99 1.93L11.99 1.93L12.35 3.55Q11.76 3.95 10.75 4.18Q9.74 4.42 8.72 4.42L8.72 4.42Q6.05 4.42 4.21 3.40Q2.37 2.38 1.47 0.38Q0.58-1.62 0.67-4.47L0.67-4.47Q0.79-7.17 1.92-9.30Q3.05-11.44 5.00-12.60Q6.96-13.77 9.42-13.77Q11.88-13.77 13.67-12.75Q15.46-11.73 16.36-9.81Q17.26-7.90 17.15-5.37ZM7.38-4.26L7.38-4.26Q7.28-2.99 7.58-2.34Q7.89-1.69 8.57-1.69L8.57-1.69Q9.03-1.69 9.42-2.10Q9.80-2.51 10.06-3.27L10.06-3.27L10.45-7.72Q10.16-7.80 9.84-7.80L9.84-7.80Q8.75-7.80 8.16-6.95Q7.57-6.09 7.38-4.26ZM20.87-3.19L20.87-3.19Q21.65-3.19 22.17-2.73Q22.69-2.27 22.69-1.54Q22.69-0.82 22.17-0.36Q21.65 0.11 20.87 0.11L20.87 0.11Q20.08 0.11 19.57-0.36Q19.05-0.83 19.05-1.54Q19.05-2.26 19.57-2.72Q20.08-3.19 20.87-3.19ZM41.10-5.37L41.10-5.37Q41.01-2.82 39.83-1.31Q38.66 0.21 36.71 0.21L36.71 0.21Q35.91 0.21 35.29-0.14Q34.68-0.49 34.34-1.12L34.34-1.12Q33.38 0.17 31.77 0.17L31.77 0.17Q30.83 0.17 30.13-0.39Q29.42-0.94 29.10-1.95Q28.77-2.97 28.90-4.26L28.90-4.26Q29.19-6.70 30.47-8.18Q31.75-9.67 33.60-9.67L33.60-9.67Q35.04-9.67 36.07-9.00L36.07-9.00L36.69-8.59L36.19-2.86Q36.03-1.50 37.13-1.50L37.13-1.50Q37.96-1.50 38.52-2.56Q39.08-3.62 39.14-5.27L39.14-5.27Q39.31-8.54 37.79-10.31Q36.27-12.09 33.34-12.09L33.34-12.09Q31.47-12.09 30.02-11.14Q28.57-10.19 27.73-8.44Q26.88-6.70 26.78-4.47L26.78-4.47Q26.62-1.05 28.14 0.76Q29.67 2.57 32.71 2.57L32.71 2.57Q33.54 2.57 34.45 2.38Q35.37 2.19 35.95 1.93L35.95 1.93L36.31 3.55Q35.71 3.95 34.70 4.18Q33.69 4.42 32.68 4.42L32.68 4.42Q30.01 4.42 28.17 3.40Q26.33 2.38 25.43 0.38Q24.53-1.62 24.63-4.47L24.63-4.47Q24.75-7.17 25.87-9.30Q27.00-11.44 28.96-12.60Q30.92-13.77 33.38-13.77Q35.84-13.77 37.63-12.75Q39.41-11.73 40.31-9.81Q41.21-7.90 41.10-5.37ZM31.34-4.26L31.34-4.26Q31.23-2.99 31.54-2.34Q31.85-1.69 32.53-1.69L32.53-1.69Q32.99-1.69 33.37-2.10Q33.76-2.51 34.01-3.27L34.01-3.27L34.40-7.72Q34.11-7.80 33.80-7.80L33.80-7.80Q32.71-7.80 32.11-6.95Q31.52-6.09 31.34-4.26Z"></path></g></g></svg></svg></g></g></svg>